<svg class="animated" id="freepik_stories-button-style" xmlns="http://www.w3.org/2000/svg" viewBox="0 0 500 500" version="1.1" xmlns:xlink="http://www.w3.org/1999/xlink" xmlns:svgjs="http://svgjs.com/svgjs"><style>svg#freepik_stories-button-style:not(.animated) .animable {opacity: 0;}svg#freepik_stories-button-style.animated #freepik--Plant--inject-45 {animation: 6s Infinite  linear spin;animation-delay: 0s;}svg#freepik_stories-button-style.animated #freepik--Screen--inject-45 {animation: 3s Infinite  linear wind;animation-delay: 0s;}svg#freepik_stories-button-style.animated #freepik--Colors--inject-45 {animation: 1.5s Infinite  linear floating;animation-delay: 0s;}         @keyframes spin {             from {                 transform: rotate(0);               }               to {                 transform: rotate(360deg);               }         }                 @keyframes wind {                0% {                    transform: rotate( 0deg );                }                25% {                    transform: rotate( 1deg );                }                75% {                    transform: rotate( -1deg );                }            }                    @keyframes floating {                0% {                    opacity: 1;                    transform: translateY(0px);                }                50% {                    transform: translateY(-10px);                }                100% {                    opacity: 1;                    transform: translateY(0px);                }            }        .animator-hidden { display: none; }</style><g id="freepik--Floor--inject-45" class="animable" style="transform-origin: 250.001px 347.523px;"><path d="M403.36,258.39c-85.25-49.22-223-49.22-307.73,0s-84.25,129,1,178.25,223,49.23,307.74,0S488.62,307.62,403.36,258.39Z" style="fill: rgb(245, 245, 245); transform-origin: 250.001px 347.523px;" id="elfh4dahqpgbq" class="animable"></path></g><g id="freepik--Shadows--inject-45" class="animable" style="transform-origin: 258.404px 403.579px;"><path d="M66,402.28c-2.91,1.68-2.91,4.4,0,6.07l11.86,6.85a11.53,11.53,0,0,0,10.48,0l130.1-75.11c2.9-1.68,2.93-4.4,0-6.08l-11.86-6.84a11.55,11.55,0,0,0-10.49,0Z" style="fill: rgb(230, 230, 230); transform-origin: 142.222px 371.185px;" id="eli73shqtk9n" class="animable"></path><path d="M104.54,411c-2.91,1.68-2.92,4.4,0,6.07l11.86,6.85a11.55,11.55,0,0,0,10.49,0L238,359.7c2.9-1.67,2.93-4.39,0-6.07l-11.87-6.85a11.59,11.59,0,0,0-10.48,0Z" style="fill: rgb(230, 230, 230); transform-origin: 171.27px 385.354px;" id="el3azaierwx92" class="animable"></path><path d="M369,421.92c-23.5-13.57-61.49-13.57-84.84,0s-23.23,35.58.27,49.15,61.49,13.57,84.85,0S392.48,435.49,369,421.92Z" style="fill: rgb(230, 230, 230); transform-origin: 326.716px 446.495px;" id="elfuil4bad96m" class="animable"></path><path d="M422,373.66c7.13-4.12,18.64-4.12,25.72,0s7,10.78-.08,14.9-18.64,4.11-25.72,0S414.86,377.77,422,373.66Z" style="fill: rgb(230, 230, 230); transform-origin: 434.809px 381.108px;" id="el9omb7r9cxo" class="animable"></path></g><g id="freepik--Windows--inject-45" class="animable animator-active animator-hidden" style="transform-origin: 385.91px 126.39px;"><polygon points="344.39 127.84 344.27 170.62 346.65 172 346.77 129.21 344.39 127.84" style="fill: rgb(224, 224, 224); transform-origin: 345.52px 149.92px;" id="el6kw93je6bux" class="animable"></polygon><polygon points="346.78 129.21 346.77 129.21 346.65 172 348.72 170.79 348.84 130.4 346.78 129.21" style="fill: rgb(240, 240, 240); transform-origin: 347.745px 150.605px;" id="elzu0b5pcgmvb" class="animable"></polygon><g id="el3mkqtosjy33"><rect x="345.58" y="127.15" height="2.75" style="fill: rgb(224, 224, 224); transform-origin: 345.58px 128.525px; transform: rotate(-60deg);" class="animable"></rect></g><g id="el9vtatutd7vi"><polygon points="346.77 131.13 346.77 129.21 344.39 127.84 344.39 129.76 346.77 131.13 346.77 131.13" style="opacity: 0.2; transform-origin: 345.58px 129.485px;" class="animable"></polygon></g><g id="elqv4dn7duhhs"><polygon points="346.77 131.13 348.44 130.17 346.78 129.21 346.77 129.21 346.77 131.13" style="opacity: 0.2; transform-origin: 347.605px 130.17px;" class="animable"></polygon></g><g id="elsm8zduhixli"><rect x="345.58" y="127.15" height="2.75" style="fill: rgb(224, 224, 224); transform-origin: 345.58px 128.525px; transform: rotate(-60deg);" class="animable"></rect></g><polygon points="344.39 81.99 344.27 124.77 346.65 126.14 346.77 83.36 344.39 81.99" style="fill: rgb(224, 224, 224); transform-origin: 345.52px 104.065px;" id="elfj0srcgtji9" class="animable"></polygon><polygon points="346.78 83.36 346.77 83.36 346.65 126.14 348.72 124.94 348.84 84.55 346.78 83.36" style="fill: rgb(240, 240, 240); transform-origin: 347.745px 104.75px;" id="eltgpe5jpk4u9" class="animable"></polygon><g id="el4egtymsuhbb"><rect x="345.58" y="81.3" height="2.75" style="fill: rgb(224, 224, 224); transform-origin: 345.58px 82.675px; transform: rotate(-60deg);" class="animable"></rect></g><g id="el3x3xmodlx8w"><polygon points="346.77 85.28 346.77 83.36 344.39 81.99 344.39 83.91 346.77 85.28 346.77 85.28" style="opacity: 0.2; transform-origin: 345.58px 83.635px;" class="animable"></polygon></g><g id="elsqqo2ety3cs"><polygon points="346.77 85.28 348.44 84.32 346.78 83.36 346.77 83.36 346.77 85.28" style="opacity: 0.2; transform-origin: 347.605px 84.32px;" class="animable"></polygon></g><g id="el020uiydsnzer"><rect x="345.58" y="81.3" height="2.75" style="fill: rgb(224, 224, 224); transform-origin: 345.58px 82.675px; transform: rotate(-60deg);" class="animable"></rect></g><polygon points="344.39 36.13 344.27 78.92 346.65 80.29 346.77 37.51 344.39 36.13" style="fill: rgb(224, 224, 224); transform-origin: 345.52px 58.21px;" id="elojvvvlq018h" class="animable"></polygon><polygon points="346.78 37.51 346.77 37.51 346.65 80.29 348.72 79.09 348.84 38.7 346.78 37.51" style="fill: rgb(240, 240, 240); transform-origin: 347.745px 58.9px;" id="eluu11upqt0fs" class="animable"></polygon><g id="el7xk3vb6a2j3"><rect x="345.59" y="35.45" height="2.75" style="fill: rgb(224, 224, 224); transform-origin: 345.59px 36.825px; transform: rotate(-60deg);" class="animable"></rect></g><g id="elq0qyqr0x8ap"><polygon points="346.77 39.43 346.77 37.51 344.39 36.13 344.39 38.05 346.77 39.43 346.77 39.43" style="opacity: 0.2; transform-origin: 345.58px 37.78px;" class="animable"></polygon></g><g id="ell0osw0plmlh"><polygon points="346.77 39.43 348.44 38.47 346.78 37.51 346.77 37.51 346.77 39.43" style="opacity: 0.2; transform-origin: 347.605px 38.47px;" class="animable"></polygon></g><g id="elhmripsndwsk"><rect x="345.59" y="35.45" height="2.75" style="fill: rgb(224, 224, 224); transform-origin: 345.59px 36.825px; transform: rotate(-60deg);" class="animable"></rect></g><polygon points="423.09 173.69 422.97 216.47 425.35 217.85 425.47 175.06 423.09 173.69" style="fill: rgb(224, 224, 224); transform-origin: 424.22px 195.77px;" id="elpdhjxy3shp9" class="animable"></polygon><polygon points="425.48 175.06 425.47 175.06 425.35 217.85 427.42 216.65 427.54 176.25 425.48 175.06" style="fill: rgb(240, 240, 240); transform-origin: 426.445px 196.455px;" id="el8u61va5l1vi" class="animable"></polygon><g id="eltpiz8850w5n"><rect x="424.28" y="173" height="2.75" style="fill: rgb(224, 224, 224); transform-origin: 424.28px 174.375px; transform: rotate(-60deg);" class="animable"></rect></g><g id="elm1fcv1vx45c"><polygon points="425.47 176.99 425.47 175.06 423.09 173.69 423.09 175.61 425.47 176.99 425.47 176.99" style="opacity: 0.2; transform-origin: 424.28px 175.34px;" class="animable"></polygon></g><g id="elnp47em3midm"><polygon points="425.47 176.99 427.14 176.03 425.48 175.06 425.47 175.06 425.47 176.99" style="opacity: 0.2; transform-origin: 426.305px 176.025px;" class="animable"></polygon></g><g id="el1sl3g9erlin"><rect x="424.28" y="173" height="2.75" style="fill: rgb(224, 224, 224); transform-origin: 424.28px 174.375px; transform: rotate(-60deg);" class="animable"></rect></g><g style="isolation: isolate; transform-origin: 425.255px 149.315px;" id="elihgc55t8vt" class="animable"><polygon points="394.44 111.3 396.51 110.09 396.39 152.88 394.32 154.08 394.44 111.3" style="fill: rgb(240, 240, 240); transform-origin: 395.415px 132.085px;" id="elb6vzv3v2n2t" class="animable"></polygon><polygon points="394.32 154.08 396.39 152.88 456.07 187.34 454.01 188.54 394.32 154.08" style="fill: rgb(245, 245, 245); transform-origin: 425.195px 170.71px;" id="elsotzx7gdjhl" class="animable"></polygon><path d="M392.07,107.19l64.45,37.2-.14,48.26-64.45-37.21ZM454,188.54l.12-42.79L394.44,111.3l-.12,42.78L454,188.54" style="fill: rgb(224, 224, 224); transform-origin: 424.225px 149.92px;" id="elfqbfscdexv7" class="animable"></path><polygon points="392.07 107.19 394.14 105.98 458.58 143.19 456.52 144.39 392.07 107.19" style="fill: rgb(245, 245, 245); transform-origin: 425.325px 125.185px;" id="eljlx6wbsdm4" class="animable"></polygon><polygon points="456.52 144.39 458.58 143.19 458.45 191.45 456.38 192.65 456.52 144.39" style="fill: rgb(240, 240, 240); transform-origin: 457.48px 167.92px;" id="elo8pnq4r512i" class="animable"></polygon></g><polygon points="423.09 127.84 422.97 170.62 425.35 172 425.47 129.21 423.09 127.84" style="fill: rgb(224, 224, 224); transform-origin: 424.22px 149.92px;" id="elc68xhkux0ip" class="animable"></polygon><polygon points="425.48 129.21 425.47 129.21 425.35 172 427.42 170.79 427.54 130.4 425.48 129.21" style="fill: rgb(240, 240, 240); transform-origin: 426.445px 150.605px;" id="elaxdfjpzcf" class="animable"></polygon><g id="elqbl7fxzboj9"><rect x="424.28" y="127.15" height="2.75" style="fill: rgb(224, 224, 224); transform-origin: 424.28px 128.525px; transform: rotate(-60deg);" class="animable"></rect></g><g id="el6j8omm7x4ij"><polygon points="425.47 131.13 425.47 129.21 423.09 127.84 423.09 129.76 425.47 131.13 425.47 131.13" style="opacity: 0.2; transform-origin: 424.28px 129.485px;" class="animable"></polygon></g><g id="elydtiabggdyi"><polygon points="425.47 131.13 427.14 130.17 425.48 129.21 425.47 129.21 425.47 131.13" style="opacity: 0.2; transform-origin: 426.305px 130.17px;" class="animable"></polygon></g><g id="eldm7oh22im1i"><rect x="424.28" y="127.15" height="2.75" style="fill: rgb(224, 224, 224); transform-origin: 424.28px 128.525px; transform: rotate(-60deg);" class="animable"></rect></g><g style="isolation: isolate; transform-origin: 425.255px 103.465px;" id="elw4wsdl80ns" class="animable"><polygon points="394.44 65.44 396.51 64.24 396.39 107.03 394.32 108.23 394.44 65.44" style="fill: rgb(240, 240, 240); transform-origin: 395.415px 86.235px;" id="el5rm30crtb6w" class="animable"></polygon><polygon points="394.32 108.23 396.39 107.03 456.07 141.48 454.01 142.69 394.32 108.23" style="fill: rgb(245, 245, 245); transform-origin: 425.195px 124.86px;" id="el7c919aoavdb" class="animable"></polygon><path d="M392.07,61.33l64.45,37.21-.14,48.26-64.45-37.21ZM454,142.69l.12-42.79L394.44,65.44l-.12,42.79L454,142.69" style="fill: rgb(224, 224, 224); transform-origin: 424.225px 104.065px;" id="el9dsi18iitz" class="animable"></path><polygon points="392.07 61.33 394.14 60.13 458.58 97.34 456.52 98.54 392.07 61.33" style="fill: rgb(245, 245, 245); transform-origin: 425.325px 79.335px;" id="elyq0wwbo5ms" class="animable"></polygon><polygon points="456.52 98.54 458.58 97.34 458.45 145.59 456.38 146.8 456.52 98.54" style="fill: rgb(240, 240, 240); transform-origin: 457.48px 122.07px;" id="elbavvqfs0rk7" class="animable"></polygon></g><polygon points="423.09 81.99 422.97 124.77 425.35 126.14 425.47 83.36 423.09 81.99" style="fill: rgb(224, 224, 224); transform-origin: 424.22px 104.065px;" id="elmgi3utr1e9b" class="animable"></polygon><polygon points="425.48 83.36 425.47 83.36 425.35 126.14 427.42 124.94 427.54 84.55 425.48 83.36" style="fill: rgb(240, 240, 240); transform-origin: 426.445px 104.75px;" id="elzuo01j3vp6" class="animable"></polygon><g id="elo9ljq33wkx"><rect x="424.28" y="81.3" height="2.75" style="fill: rgb(224, 224, 224); transform-origin: 424.28px 82.675px; transform: rotate(-60deg);" class="animable"></rect></g><g id="ele8aw394vkqn"><polygon points="425.47 85.28 425.47 83.36 423.09 81.99 423.09 83.91 425.47 85.28 425.47 85.28" style="opacity: 0.2; transform-origin: 424.28px 83.635px;" class="animable"></polygon></g><g id="el76h1tb196na"><polygon points="425.47 85.28 427.14 84.32 425.48 83.36 425.47 83.36 425.47 85.28" style="opacity: 0.2; transform-origin: 426.305px 84.32px;" class="animable"></polygon></g><g id="elfan4ja8z26g"><rect x="424.28" y="81.3" height="2.75" style="fill: rgb(224, 224, 224); transform-origin: 424.28px 82.675px; transform: rotate(-60deg);" class="animable"></rect></g><polygon points="315.75 111.3 317.81 110.09 317.69 152.88 315.62 154.08 315.75 111.3" style="fill: rgb(240, 240, 240); transform-origin: 316.715px 132.085px;" id="elwe5n5dmt4wg" class="animable"></polygon><polygon points="315.62 154.08 317.69 152.88 377.38 187.34 375.31 188.54 315.62 154.08" style="fill: rgb(245, 245, 245); transform-origin: 346.5px 170.71px;" id="elv51lbwtymq" class="animable"></polygon><path d="M313.37,107.19l64.45,37.2-.14,48.26-64.44-37.21Zm61.94,81.35.12-42.79L315.75,111.3l-.13,42.78,59.69,34.46" style="fill: rgb(224, 224, 224); transform-origin: 345.53px 149.92px;" id="elma3bdbiac7e" class="animable"></path><polygon points="313.37 107.19 315.44 105.98 379.89 143.19 377.82 144.39 313.37 107.19" style="fill: rgb(245, 245, 245); transform-origin: 346.63px 125.185px;" id="el2t56pi3uenl" class="animable"></polygon><polygon points="377.82 144.39 379.89 143.19 379.75 191.45 377.68 192.65 377.82 144.39" style="fill: rgb(240, 240, 240); transform-origin: 378.785px 167.92px;" id="elvpepbb9fbo" class="animable"></polygon><polygon points="315.75 65.44 317.81 64.24 317.69 107.03 315.62 108.23 315.75 65.44" style="fill: rgb(240, 240, 240); transform-origin: 316.715px 86.235px;" id="el8526j7yzlw7" class="animable"></polygon><polygon points="315.62 108.23 317.69 107.03 377.38 141.48 375.31 142.69 315.62 108.23" style="fill: rgb(245, 245, 245); transform-origin: 346.5px 124.86px;" id="elrsjaqgaj4t" class="animable"></polygon><path d="M313.37,61.33l64.45,37.21-.14,48.26-64.44-37.21Zm61.94,81.36.12-42.79L315.75,65.44l-.13,42.79,59.69,34.46" style="fill: rgb(224, 224, 224); transform-origin: 345.53px 104.065px;" id="eley2m8egduo" class="animable"></path><polygon points="313.37 61.33 315.44 60.13 379.89 97.34 377.82 98.54 313.37 61.33" style="fill: rgb(245, 245, 245); transform-origin: 346.63px 79.335px;" id="eleywq3ciq1i" class="animable"></polygon><polygon points="377.82 98.54 379.89 97.34 379.75 145.59 377.68 146.8 377.82 98.54" style="fill: rgb(240, 240, 240); transform-origin: 378.785px 122.07px;" id="elagsl1116n6j" class="animable"></polygon><polygon points="315.75 19.59 317.81 18.39 317.69 61.17 315.62 62.38 315.75 19.59" style="fill: rgb(240, 240, 240); transform-origin: 316.715px 40.385px;" id="elnle6aen2v69" class="animable"></polygon><polygon points="315.62 62.38 317.69 61.17 377.38 95.63 375.31 96.83 315.62 62.38" style="fill: rgb(245, 245, 245); transform-origin: 346.5px 79px;" id="elp597pnxb2yl" class="animable"></polygon><path d="M313.37,15.48l64.45,37.21-.14,48.25-64.44-37.2Zm61.94,81.35.12-42.78L315.75,19.59l-.13,42.79,59.69,34.45" style="fill: rgb(224, 224, 224); transform-origin: 345.53px 58.21px;" id="el27sxvexe2vd" class="animable"></path><polygon points="313.37 15.48 315.44 14.28 379.89 51.49 377.82 52.69 313.37 15.48" style="fill: rgb(245, 245, 245); transform-origin: 346.63px 33.485px;" id="elnbmoxife74a" class="animable"></polygon><polygon points="377.82 52.69 379.89 51.49 379.75 99.74 377.68 100.94 377.82 52.69" style="fill: rgb(240, 240, 240); transform-origin: 378.785px 76.215px;" id="el06cwmm8uoma6" class="animable"></polygon><polygon points="394.44 157.15 396.51 155.95 396.39 198.73 394.32 199.93 394.44 157.15" style="fill: rgb(240, 240, 240); transform-origin: 395.415px 177.94px;" id="elteby32xa7d" class="animable"></polygon><polygon points="394.32 199.93 396.39 198.73 456.07 233.19 454.01 234.39 394.32 199.93" style="fill: rgb(245, 245, 245); transform-origin: 425.195px 216.56px;" id="elt07cysy0jlo" class="animable"></polygon><path d="M392.07,153l64.45,37.21-.14,48.25-64.45-37.21ZM454,234.39l.12-42.78-59.69-34.46-.12,42.78L454,234.39" style="fill: rgb(224, 224, 224); transform-origin: 424.225px 195.73px;" id="elaif0t6c2nq" class="animable"></path><polygon points="392.07 153.04 394.14 151.84 458.58 189.04 456.52 190.25 392.07 153.04" style="fill: rgb(245, 245, 245); transform-origin: 425.325px 171.045px;" id="elxookp2sig0b" class="animable"></polygon><polygon points="456.52 190.25 458.58 189.04 458.45 237.3 456.38 238.5 456.52 190.25" style="fill: rgb(240, 240, 240); transform-origin: 457.48px 213.77px;" id="eloeavugcyc3i" class="animable"></polygon></g><g id="freepik--Plant--inject-45" class="animable" style="transform-origin: 433.755px 330.682px;"><path d="M417.55,350l17.25.5,17.25-.5c.75,11.65-1.53,23.52-4.66,29.32h0a7.83,7.83,0,0,1-3.41,3.47c-5.09,2.94-13.32,2.94-18.38,0a7.67,7.67,0,0,1-3.41-3.56C419.06,373.39,416.81,361.58,417.55,350Z" style="fill: rgb(255, 255, 255); transform-origin: 434.801px 367.497px;" id="elogkaqcjqeok" class="animable"></path><path d="M422.64,342.92c-6.76,3.9-6.79,10.23-.08,14.13s17.64,3.91,24.4,0,6.79-10.23.08-14.13S429.4,339,422.64,342.92Z" style="fill: rgb(235, 235, 235); transform-origin: 434.8px 349.983px;" id="els4qwbg14jvs" class="animable"></path><path d="M425.32,344.47c-5.28,3-5.31,8-.07,11s13.76,3,19,0,5.3-8,.06-11S430.59,341.43,425.32,344.47Z" style="fill: rgb(224, 224, 224); transform-origin: 434.775px 349.962px;" id="eli59ohat3o" class="animable"></path><g id="el0eg6zbdayk7b"><g style="opacity: 0.15; transform-origin: 434.775px 349.962px;" class="animable"><path d="M425.32,344.47c-5.28,3-5.31,8-.07,11s13.76,3,19,0,5.3-8,.06-11S430.59,341.43,425.32,344.47Z" id="elprd7llnq52s" class="animable" style="transform-origin: 434.775px 349.962px;"></path></g></g><path d="M406.44,276.37c38.87,12.73,39.23,38.74,30.46,57.26-2.21,3.75-8.9,5.76-14.72-17.27l10.21,1.31-11.9-6-3.09-9.24,9.92.73-12.59-5.29A186.39,186.39,0,0,0,406.44,276.37Z" style="fill: rgb(63, 0, 113); transform-origin: 423.996px 306.154px;" id="eltff327rdb7b" class="animable"></path><g id="el0z4pfdh0mv9m"><path d="M406.44,276.37c38.87,12.73,39.23,38.74,30.46,57.26-2.21,3.75-8.9,5.76-14.72-17.27l10.21,1.31-11.9-6-3.09-9.24,9.92.73-12.59-5.29A186.39,186.39,0,0,0,406.44,276.37Z" style="opacity: 0.2; transform-origin: 423.996px 306.154px;" class="animable"></path></g><g id="ela36j6o0kldl"><path d="M406.44,276.37c38.87,12.73,39.23,38.74,30.46,57.26-2.21,3.75-8.9,5.76-14.72-17.27l10.21,1.31-11.9-6-3.09-9.24,9.92.73-12.59-5.29A186.39,186.39,0,0,0,406.44,276.37Z" style="fill: rgb(255, 255, 255); opacity: 0.2; transform-origin: 423.996px 306.154px;" class="animable"></path></g><path d="M417.43,282.88c20.51,15.56,22.36,33.4,16.56,52C436,318.5,438.26,301.92,417.43,282.88Z" style="fill: rgb(255, 255, 255); transform-origin: 427.14px 308.88px;" id="elueqnqe8m9ns" class="animable"></path><path d="M472.29,302.79c-38.33,5.4-43,29.56-37.89,48.27,1.44,3.86,7.33,6.84,16.58-13.64l-9.73-.48,12.09-3.64,4.41-8.09-9.36-1L461,321.41A174.68,174.68,0,0,1,472.29,302.79Z" style="fill: rgb(63, 0, 113); transform-origin: 452.493px 328.315px;" id="el6u8b9ccpuzv" class="animable"></path><g id="elb1qw4lnxggc"><path d="M472.29,302.79c-38.33,5.4-43,29.56-37.89,48.27,1.44,3.86,7.33,6.84,16.58-13.64l-9.73-.48,12.09-3.64,4.41-8.09-9.36-1L461,321.41A174.68,174.68,0,0,1,472.29,302.79Z" style="fill: rgb(255, 255, 255); opacity: 0.2; transform-origin: 452.493px 328.315px;" class="animable"></path></g><g id="elpa8kvr9s2pd"><path d="M472.29,302.79c-38.33,5.4-43,29.56-37.89,48.27,1.44,3.86,7.33,6.84,16.58-13.64l-9.73-.48,12.09-3.64,4.41-8.09-9.36-1L461,321.41A174.68,174.68,0,0,1,472.29,302.79Z" style="opacity: 0.1; transform-origin: 452.493px 328.315px;" class="animable"></path></g><path d="M461,307c-21.67,11.09-26.36,27.39-24.06,45.7C437.71,337.11,438.41,321.3,461,307Z" style="fill: rgb(255, 255, 255); transform-origin: 448.705px 329.85px;" id="elw9tnaexdj8" class="animable"></path><path d="M395.22,311.85c35.15.57,42,21.83,39.55,39.26-.86,3.64-5.84,7-16.47-10.44l8.71-1.52-11.3-1.93-4.88-6.8,8.33-1.91-11.68-1.15A159.07,159.07,0,0,0,395.22,311.85Z" style="fill: rgb(63, 0, 113); transform-origin: 415.219px 332.941px;" id="elmhyjapzqb" class="animable"></path><path d="M405.9,314.39c20.78,7.57,26.83,21.74,26.81,38.5C430.22,338.91,427.83,324.73,405.9,314.39Z" style="fill: rgb(255, 255, 255); transform-origin: 419.305px 333.64px;" id="el1552fcbtnsf" class="animable"></path><g id="elfpih7yacy7o"><path d="M395.22,311.85c35.15.57,42,21.83,39.55,39.26-.86,3.64-5.84,7-16.47-10.44l8.71-1.52-11.3-1.93-4.88-6.8,8.33-1.91-11.68-1.15A159.07,159.07,0,0,0,395.22,311.85Z" style="fill: rgb(255, 255, 255); opacity: 0.2; transform-origin: 415.219px 332.941px;" class="animable"></path></g></g><g id="freepik--Device--inject-45" class="animable" style="transform-origin: 142.135px 220.097px;"><path d="M215.36,47.46h0c-.91-3.19-7.38-9.25-13.82-9.12a6,6,0,0,0-1.81.35L74.68,109.84a12.14,12.14,0,0,0-6,10.39V390.75c0,6.89,7.94,13.46,15.4,10.3l0,0a2.18,2.18,0,0,0,.48-.19l125.07-71.27a12,12,0,0,0,6-10.39V48.76A2.94,2.94,0,0,0,215.36,47.46Z" style="fill: rgb(55, 71, 79); transform-origin: 142.155px 220.102px;" id="el80as38o9gs" class="animable"></path><path d="M215.36,47.46h0c-.91-3.19-7.38-9.25-13.82-9.12a6,6,0,0,0-1.81.35L74.68,109.84a12.14,12.14,0,0,0-6,10.39V390.75c0,6.89,7.94,13.46,15.4,10.3l0,0a2.18,2.18,0,0,0,.48-.19l125.07-71.27a12,12,0,0,0,6-10.39V48.76A2.94,2.94,0,0,0,215.36,47.46Z" style="fill: rgb(69, 90, 100); transform-origin: 142.155px 220.102px;" id="elw9kb8awlfh" class="animable"></path><path d="M86.08,148.83a6,6,0,0,1,3-5.2L205.23,77.56a3,3,0,0,1,4.47,2.6V298.29a6,6,0,0,1-3,5.2L90.55,369.66a3,3,0,0,1-4.47-2.6Z" style="fill: rgb(63, 0, 113); transform-origin: 147.89px 223.61px;" id="el65i768mdrui" class="animable"></path><g id="eltabok62teo9"><path d="M86.08,148.83a6,6,0,0,1,3-5.2L205.23,77.56a3,3,0,0,1,4.47,2.6V298.29a6,6,0,0,1-3,5.2L90.55,369.66a3,3,0,0,1-4.47-2.6Z" style="opacity: 0.2; transform-origin: 147.89px 223.61px;" class="animable"></path></g><g id="eladmdh0bh5xa"><path d="M68.64,120.23V390.75c0,6.89,7.94,13.46,15.4,10.3l0,0a3,3,0,0,1-4-2.79V127.71a12,12,0,0,1,2-6.61L69.88,115A11.88,11.88,0,0,0,68.64,120.23Z" style="opacity: 0.3; transform-origin: 76.34px 258.433px;" class="animable"></path></g><g id="elilr37wfzb2"><path d="M201.55,38.33a6,6,0,0,0-1.81.35L74.68,109.84a11.87,11.87,0,0,0-4.8,5.15l12.24,6.11a11.91,11.91,0,0,1,4-3.79L211.21,46.16a3,3,0,0,1,4.15,1.3h0C214.46,44.26,208,38.2,201.55,38.33Z" style="fill: rgb(255, 255, 255); opacity: 0.1; transform-origin: 142.62px 79.714px;" class="animable"></path></g><path d="M163.3,90.83c.88-.51,1.61-.11,1.61.9a3.56,3.56,0,0,1-1.6,2.77l-24.53,14.16c-.88.51-1.59.08-1.59-.93a3.43,3.43,0,0,1,1.58-2.73Z" style="fill: rgb(38, 50, 56); transform-origin: 151.05px 99.7419px;" id="elecuam6ao8b" class="animable"></path><path d="M132.47,108.64c.87-.51,1.58-.11,1.59.9a3.55,3.55,0,0,1-1.58,2.76c-.88.51-1.61.09-1.61-.92A3.46,3.46,0,0,1,132.47,108.64Z" style="fill: rgb(38, 50, 56); transform-origin: 132.465px 110.468px;" id="elfraur6j4wb" class="animable"></path><path d="M148.17,88.77c1.76-1,3.17-.21,3.18,1.81a7,7,0,0,1-3.16,5.51c-1.75,1-3.21.19-3.21-1.83A7,7,0,0,1,148.17,88.77Z" style="fill: rgb(38, 50, 56); transform-origin: 148.165px 92.4279px;" id="elwa1n6obw2pb" class="animable"></path><path d="M148.18,343.44c3.57-2.07,6.46-.42,6.47,3.68a14.29,14.29,0,0,1-6.43,11.23c-3.57,2.06-6.53.37-6.55-3.74A14.3,14.3,0,0,1,148.18,343.44Z" style="fill: rgb(38, 50, 56); transform-origin: 148.16px 350.888px;" id="el4trkxxjwt8t" class="animable"></path></g><g id="freepik--Screen--inject-45" class="animable" style="transform-origin: 173.06px 247.076px;"><path d="M239.5,90.35h0a10,10,0,0,0-2.79-3.92,17.31,17.31,0,0,0-5.44-3.52,10.86,10.86,0,0,0-1.05-.36,10.95,10.95,0,0,0-3.26-.48,6,6,0,0,0-1.47.25l-.17.07L111.81,147a10.31,10.31,0,0,0-2,1.49,10.83,10.83,0,0,0-1.79,2.16,10.47,10.47,0,0,0-.6,1,11,11,0,0,0-1,3.52,10.24,10.24,0,0,0-.07,1.25V402h0c0,5.08,4.76,10,10.17,10.09a9.13,9.13,0,0,0,3.81-.74l0,0,.22-.08.22-.1L234.31,346.4a10.85,10.85,0,0,0,5.48-9.43V91.53A2.54,2.54,0,0,0,239.5,90.35Z" style="fill: rgb(63, 0, 113); transform-origin: 173.07px 247.081px;" id="els3x0cive3hi" class="animable"></path><path d="M239.5,90.35h0c-.82-2.89-6.69-8.39-12.54-8.28a5.35,5.35,0,0,0-1.64.32L111.81,147a10.79,10.79,0,0,0-4.36,4.67,10.9,10.9,0,0,0-1.12,4.77V402c0,6.25,7.21,12.22,14,9.35l0,0a2.39,2.39,0,0,0,.44-.18L234.31,346.4a10.85,10.85,0,0,0,5.48-9.43V91.53A2.54,2.54,0,0,0,239.5,90.35Z" style="fill: rgb(63, 0, 113); transform-origin: 173.06px 247.079px;" id="elqxk0hxayl49" class="animable"></path><g id="ells86pcys4bg"><path d="M106.33,156.41V402c0,6.25,7.21,12.22,14,9.35l0,0a2.7,2.7,0,0,1-3.62-2.54V163.19a10.84,10.84,0,0,1,1.83-6l-11.11-5.56A10.9,10.9,0,0,0,106.33,156.41Z" style="fill: rgb(255, 255, 255); opacity: 0.2; transform-origin: 113.33px 281.86px;" class="animable"></path></g><g id="elgab43b1olyw"><path d="M227,82.06a5.35,5.35,0,0,0-1.64.32L111.81,147a10.79,10.79,0,0,0-4.36,4.67l11.11,5.56a10.9,10.9,0,0,1,3.66-3.45L235.74,89.17a2.69,2.69,0,0,1,3.76,1.18h0C238.69,87.45,232.82,82,227,82.06Z" style="fill: rgb(255, 255, 255); opacity: 0.4; transform-origin: 173.475px 119.645px;" class="animable"></path></g><g id="elxvim7lqbusk"><path d="M239.5,90.35h0c-.82-2.89-6.69-8.39-12.54-8.28a5.35,5.35,0,0,0-1.64.32L111.81,147a10.79,10.79,0,0,0-4.36,4.67,10.9,10.9,0,0,0-1.12,4.77V402c0,6.25,7.21,12.22,14,9.35l0,0a2.39,2.39,0,0,0,.44-.18L234.31,346.4a10.85,10.85,0,0,0,5.48-9.43V91.53A2.54,2.54,0,0,0,239.5,90.35Z" style="fill: rgb(255, 255, 255); opacity: 0.2; transform-origin: 173.06px 247.079px;" class="animable"></path></g><polygon points="129.23 160.13 129.24 163.86 129.24 163.86 129.23 160.13 128.35 160.64 128.35 160.64 129.23 160.13" style="fill: none; transform-origin: 128.795px 161.995px;" id="eljx850cfllme" class="animable"></polygon><polygon points="126.31 165.55 126.31 165.55 126.31 163.4 125.44 163.9 125.44 163.9 126.31 163.4 126.31 165.55" style="fill: none; transform-origin: 125.875px 164.475px;" id="elr01y86b5l6l" class="animable"></polygon><polygon points="126.89 162.27 126.89 162.27 127.53 161.9 126.89 162.27" style="fill: none; transform-origin: 127.21px 162.085px;" id="el0l20mvthn5w" class="animable"></polygon><polygon points="127.54 164.84 127.78 164.71 127.77 161.77 127.77 161.77 127.78 164.71 127.54 164.84" style="fill: none; transform-origin: 127.66px 163.305px;" id="eltpyutkc6tg" class="animable"></polygon><polygon points="220.6 106.75 220.62 111.11 220.62 111.11 220.6 106.75 214.16 110.47 214.16 110.47 220.6 106.75" style="fill: none; transform-origin: 217.39px 108.93px;" id="elyql9g653zz" class="animable"></polygon><polygon points="230.93 103.66 230.93 105.15 223.83 109.25 223.83 109.25 230.93 105.15 230.93 103.66 231.44 103.37 231.43 101.99 231.43 101.99 231.44 103.37 230.93 103.66" style="fill: none; transform-origin: 227.635px 105.62px;" id="el1qijm0dw318" class="animable"></polygon><polygon points="140.22 157.52 140.22 157.52 140.21 153.16 133.1 157.27 133.1 157.27 140.21 153.16 140.22 157.52" style="fill: none; transform-origin: 136.66px 155.34px;" id="el7xh6ucnsz24" class="animable"></polygon><polygon points="187.51 125.86 187.52 130.22 187.52 130.22 187.51 125.86 170.07 135.92 170.07 135.92 187.51 125.86" style="fill: none; transform-origin: 178.795px 130.89px;" id="eliazfsqtdz5l" class="animable"></polygon><polygon points="129.81 159.17 129.81 159.17 130.69 158.66 129.81 159.17" style="fill: none; transform-origin: 130.25px 158.915px;" id="eliqbbwxbym2g" class="animable"></polygon><polygon points="130.34 163.23 130.7 163.02 130.69 158.66 130.7 163.02 130.34 163.23" style="fill: none; transform-origin: 130.52px 160.945px;" id="elsu6g3dfeawg" class="animable"></polygon><polygon points="142.16 152.04 142.16 152.04 143.76 151.11 142.16 152.04" style="fill: none; transform-origin: 142.96px 151.575px;" id="eld1oik8turfw" class="animable"></polygon><polygon points="145.96 149.84 145.96 149.84 145.97 154.2 145.96 149.84" style="fill: none; transform-origin: 145.965px 152.02px;" id="elsm724yhbbf" class="animable"></polygon><polygon points="224.58 105.33 224.59 107.94 227.89 106.03 227.88 103.42 224.58 105.33" style="fill: rgb(63, 0, 113); transform-origin: 226.235px 105.68px;" id="elrbuzlrbjv4l" class="animable"></polygon><path d="M230.92,100.79l-7.11,4.1v4.36l7.1-4.1v-1.49l.51-.29V102l-.18.1-.32.19Zm-3,5.24-3.31,1.91v-2.61h0l3.3-1.91V106Z" style="fill: rgb(255, 255, 255); transform-origin: 227.615px 105.02px;" id="elh9cciweh15d" class="animable"></path><polygon points="170.07 135.92 170.09 140.28 187.52 130.22 187.51 125.86 170.07 135.92" style="fill: rgb(255, 255, 255); transform-origin: 178.795px 133.07px;" id="elpjb5sikazz8" class="animable"></polygon><polygon points="214.16 110.47 214.17 114.83 220.62 111.11 220.6 106.75 214.16 110.47" style="fill: rgb(255, 255, 255); transform-origin: 217.39px 110.79px;" id="elpjkq9kj0scc" class="animable"></polygon><polygon points="128.35 160.64 128.36 164.37 129.24 163.86 129.23 160.13 128.35 160.64" style="fill: rgb(255, 255, 255); transform-origin: 128.795px 162.25px;" id="elm0di5qwjhkl" class="animable"></polygon><polygon points="142.17 156.4 145.97 154.2 145.96 149.84 145.96 149.84 143.76 151.11 142.16 152.04 142.16 152.04 142.17 156.4" style="fill: rgb(255, 255, 255); transform-origin: 144.065px 153.12px;" id="el8uke2qpspeq" class="animable"></polygon><polygon points="133.11 161.63 140.22 157.52 140.22 157.52 140.21 153.16 133.1 157.27 133.1 157.27 133.11 161.63" style="fill: rgb(255, 255, 255); transform-origin: 136.66px 157.395px;" id="ellnk0jn64fv9" class="animable"></polygon><polygon points="129.82 163.53 130.34 163.23 130.7 163.02 130.69 158.66 129.81 159.17 129.81 159.17 129.82 163.53" style="fill: rgb(255, 255, 255); transform-origin: 130.255px 161.095px;" id="el8d51b1t0z4r" class="animable"></polygon><polygon points="126.9 165.22 127.54 164.84 127.78 164.71 127.77 161.77 127.77 161.77 127.53 161.9 126.89 162.27 126.89 162.27 126.9 165.22" style="fill: rgb(255, 255, 255); transform-origin: 127.335px 163.495px;" id="ely7xclt0u6r" class="animable"></polygon><polygon points="125.44 166.06 126.31 165.55 126.31 165.55 126.31 163.4 125.44 163.9 125.44 163.9 125.44 166.06" style="fill: rgb(255, 255, 255); transform-origin: 125.875px 164.73px;" id="eli8owrgjwu9d" class="animable"></polygon><path d="M143.2,178.86c.8-.11,1.3.13,1.31,1.21a4.5,4.5,0,0,1-2.6,3.7l-2.53,1.46c-.42.25-.76.06-.76-.43l0-6.21a1.66,1.66,0,0,1,.76-1.32l2.46-1.42c.78-.45,1.41-.56,1.81-.34a1.16,1.16,0,0,1,.48,1.08v0A3.54,3.54,0,0,1,143.2,178.86Zm-.21,1.89v0c0-.53-.35-.66-1.13-.21l-1.76,1v1.75l1.81-1a1.82,1.82,0,0,0,1.08-1.49m-2.9-2.36v1.68l1.41-.81a1.79,1.79,0,0,0,1.09-1.47v0c0-.52-.35-.61-1-.24l-1.5.87" style="fill: rgb(255, 255, 255); transform-origin: 141.565px 180.37px;" id="elkdjrmjgcm4q" class="animable"></path><path d="M150.91,170.53c.43-.24.77-.05.77.44v3.69a5.93,5.93,0,0,1-3,5.34c-1.86,1.08-3,.54-3-1.81v-3.73a1.65,1.65,0,0,1,.76-1.32c.43-.25.76,0,.77.44v3.69c0,1.3.57,1.65,1.49,1.11a3,3,0,0,0,1.49-2.77v-3.76A1.71,1.71,0,0,1,150.91,170.53Z" style="fill: rgb(255, 255, 255); transform-origin: 148.681px 175.48px;" id="eluszwesg8d9d" class="animable"></path><path d="M157.84,166.6c.38-.22.7,0,.7.41a1.57,1.57,0,0,1-.7,1.22l-1.46.84v5.53a1.66,1.66,0,0,1-.76,1.32c-.42.25-.77.06-.77-.44V170l-1.47.85c-.38.22-.7,0-.7-.41a1.54,1.54,0,0,1,.7-1.21Z" style="fill: rgb(255, 255, 255); transform-origin: 155.61px 171.271px;" id="el7vxkx8jx04y" class="animable"></path><path d="M164.25,162.9c.39-.22.71,0,.71.4a1.57,1.57,0,0,1-.7,1.22l-1.47.85,0,5.53a1.69,1.69,0,0,1-.76,1.32c-.43.24-.76.05-.76-.45l0-5.53-1.47.85c-.39.23-.7,0-.7-.4a1.56,1.56,0,0,1,.7-1.22Z" style="fill: rgb(255, 255, 255); transform-origin: 162.03px 167.568px;" id="el512mtwan076" class="animable"></path><path d="M169.15,159.93c2.14-1.23,3.68-.28,3.68,2a7.82,7.82,0,0,1-3.68,6.27c-2.13,1.23-3.67.29-3.68-2A7.87,7.87,0,0,1,169.15,159.93Zm2.09,2.94v0c0-1.36-.87-2-2.1-1.28a4.49,4.49,0,0,0-2.07,3.67v0c0,1.37.88,2,2.1,1.3a4.51,4.51,0,0,0,2.07-3.69" style="fill: rgb(255, 255, 255); transform-origin: 169.15px 164.066px;" id="elauifafzgye" class="animable"></path><path d="M179.59,154c.41-.24.76,0,.76.43l0,6.33a1.64,1.64,0,0,1-.77,1.31l0,0a.59.59,0,0,1-.79-.05l-3.06-2.83v4.26a1.64,1.64,0,0,1-.75,1.3c-.41.24-.75.05-.75-.43l0-6.33a1.65,1.65,0,0,1,.76-1.32l.16-.09a.58.58,0,0,1,.79.06l2.95,2.74v-4.11A1.64,1.64,0,0,1,179.59,154Z" style="fill: rgb(255, 255, 255); transform-origin: 177.29px 159.379px;" id="elqg5pd0yzu4f" class="animable"></path><path d="M187.21,149.53a3.42,3.42,0,0,1,2.2-.56c.16,0,.33.16.33.5a1.5,1.5,0,0,1-.71,1.22.59.59,0,0,1-.38.1,2.36,2.36,0,0,0-1.46.3,1.58,1.58,0,0,0-.89,1.21v0c0,.52.3.52,1.5.19,1.41-.4,2.2-.27,2.2,1.12a4.71,4.71,0,0,1-2.53,4,3.62,3.62,0,0,1-2.61.55c-.16,0-.28-.22-.29-.49a1.51,1.51,0,0,1,.72-1.22.59.59,0,0,1,.43-.09,2.24,2.24,0,0,0,1.77-.31,1.7,1.7,0,0,0,1-1.33c0-.46-.24-.55-1.4-.22-1.39.39-2.3.47-2.3-1.11v0A4.68,4.68,0,0,1,187.21,149.53Z" style="fill: rgb(255, 255, 255); transform-origin: 187.285px 153.584px;" id="el6af9ccwyyvd" class="animable"></path><path d="M195.77,144.7c.39-.22.71,0,.71.41a1.57,1.57,0,0,1-.7,1.21l-1.47.85,0,5.53a1.69,1.69,0,0,1-.76,1.32c-.43.24-.77.06-.77-.44l0-5.53-1.46.85c-.39.22-.7,0-.7-.41a1.57,1.57,0,0,1,.69-1.22Z" style="fill: rgb(255, 255, 255); transform-origin: 193.55px 149.369px;" id="elc2lpfbre2xm" class="animable"></path><path d="M202.61,140.68c.47-.27.74-.06.75.42a1.9,1.9,0,0,1-.2.73l-2.23,4.76v2.29a1.65,1.65,0,0,1-.76,1.32c-.42.24-.76.06-.76-.44V147.5l-2.25-2.2a.69.69,0,0,1-.18-.52,1.61,1.61,0,0,1,.75-1.28.54.54,0,0,1,.76.1l1.69,1.81,1.7-3.79A1.94,1.94,0,0,1,202.61,140.68Z" style="fill: rgb(255, 255, 255); transform-origin: 200.169px 145.433px;" id="el1py0mzbjdxr" class="animable"></path><path d="M205.16,139.21c.43-.24.76-.05.77.44v5.57l2.82-1.63c.39-.23.7-.05.7.39a1.52,1.52,0,0,1-.69,1.19l-3.59,2.07c-.42.25-.76.06-.76-.43l0-6.28A1.66,1.66,0,0,1,205.16,139.21Z" style="fill: rgb(255, 255, 255); transform-origin: 206.93px 143.228px;" id="eln6fo45ria4" class="animable"></path><path d="M215.13,133.52c.37-.21.69,0,.69.39a1.52,1.52,0,0,1-.68,1.18l-3.09,1.78v1.61L214.7,137c.37-.22.68-.05.68.39a1.51,1.51,0,0,1-.68,1.17L212.06,140v1.68l3.14-1.81c.37-.22.68,0,.68.39a1.49,1.49,0,0,1-.68,1.16l-3.88,2.24c-.44.25-.77.06-.77-.43l0-6.21a1.66,1.66,0,0,1,.76-1.32Z" style="fill: rgb(255, 255, 255); transform-origin: 213.215px 138.604px;" id="elzuxy9yvfa1l" class="animable"></path><path d="M127,203.23a.76.76,0,0,1,.12-.33.73.73,0,0,1,.19-.2l102.25-58.17V337a.63.63,0,0,1-.3.53L127,395.77Z" style="fill: rgb(63, 0, 113); transform-origin: 178.28px 270.15px;" id="el5m6q8m6hjb" class="animable"></path><g id="ele8h2g2bfqq"><path d="M127,203.23a.76.76,0,0,1,.12-.33.73.73,0,0,1,.19-.2l102.25-58.17V337a.63.63,0,0,1-.3.53L127,395.77Z" style="fill: rgb(255, 255, 255); opacity: 0.5; transform-origin: 178.28px 270.15px;" class="animable"></path></g><path d="M162.87,205.24l-4.47-2.57,0,0-.07,0h0c-2-1.09-4.74-.9-7.75.84-6.13,3.54-11.09,12.11-11.07,19.16,0,3.44,1.22,5.87,3.16,7h0l.1.06,0,0,4,2.26,1.15-1.9a11.81,11.81,0,0,0,2.72-1.17c6.12-3.53,11.07-12.11,11-19.14a11.82,11.82,0,0,0-.2-2.22Z" style="fill: rgb(63, 0, 113); transform-origin: 151.19px 216.992px;" id="eli7752p2jfzi" class="animable"></path><g id="elew01srpqqy6"><path d="M162.87,205.24l-4.47-2.57,0,0-.07,0h0c-2-1.09-4.74-.9-7.75.84-6.13,3.54-11.09,12.11-11.07,19.16,0,3.44,1.22,5.87,3.16,7h0l.1.06,0,0,4,2.26,1.15-1.9a11.81,11.81,0,0,0,2.72-1.17c6.12-3.53,11.07-12.11,11-19.14a11.82,11.82,0,0,0-.2-2.22Z" style="opacity: 0.2; transform-origin: 151.19px 216.992px;" class="animable"></path></g><path d="M154.91,206c6.12-3.53,11.11-.69,11.13,6.35s-4.93,15.61-11.06,19.15-11.11.7-11.13-6.34S148.78,209.5,154.91,206Z" style="fill: rgb(63, 0, 113); transform-origin: 154.945px 218.753px;" id="elpwooe94cvhd" class="animable"></path><polygon points="145.71 252.97 145.78 278.46 167.97 265.65 167.89 240.16 145.71 252.97" style="fill: rgb(63, 0, 113); transform-origin: 156.84px 259.31px;" id="elqtgwjhjmqkl" class="animable"></polygon><polygon points="141.63 250.6 141.7 276.09 145.78 278.46 145.71 252.97 141.63 250.6" style="fill: rgb(63, 0, 113); transform-origin: 143.705px 264.53px;" id="elrh3ocpvdzwo" class="animable"></polygon><g id="elu73ls1nml8k"><polygon points="141.63 250.6 141.7 276.09 145.78 278.46 145.71 252.97 141.63 250.6" style="opacity: 0.2; transform-origin: 143.705px 264.53px;" class="animable"></polygon></g><polygon points="167.89 240.16 163.81 237.79 141.63 250.6 145.71 252.97 167.89 240.16" style="fill: rgb(63, 0, 113); transform-origin: 154.76px 245.38px;" id="el43k13ebuuqd" class="animable"></polygon><g id="elm2918wslpc"><polygon points="167.89 240.16 163.81 237.79 141.63 250.6 145.71 252.97 167.89 240.16" style="opacity: 0.1; transform-origin: 154.76px 245.38px;" class="animable"></polygon></g><polygon points="231.11 203.54 185.36 229.95 185.43 255.44 231.18 229.03 231.11 203.54" style="fill: rgb(63, 0, 113); transform-origin: 208.27px 229.49px;" id="elfozyglhowbe" class="animable"></polygon><polygon points="181.28 227.58 181.35 253.07 185.43 255.44 185.36 229.95 181.28 227.58" style="fill: rgb(63, 0, 113); transform-origin: 183.355px 241.51px;" id="el4omn1xtr0be" class="animable"></polygon><g id="elqzpsz2v4zui"><polygon points="181.28 227.58 181.35 253.07 185.43 255.44 185.36 229.95 181.28 227.58" style="opacity: 0.2; transform-origin: 183.355px 241.51px;" class="animable"></polygon></g><polygon points="231.11 203.54 227.03 201.17 181.28 227.58 185.36 229.95 231.11 203.54" style="fill: rgb(63, 0, 113); transform-origin: 206.195px 215.56px;" id="elsa6c5y8r7o" class="animable"></polygon><g id="elnoee5fj8oc"><polygon points="231.11 203.54 227.03 201.17 181.28 227.58 185.36 229.95 231.11 203.54" style="opacity: 0.1; transform-origin: 206.195px 215.56px;" class="animable"></polygon></g><path d="M143.67,312.64l8-15.56a5.32,5.32,0,0,1,1.95-2.17L177.72,281a1.81,1.81,0,0,1,1.78-.19h0l-4.42-2.57h0a1.69,1.69,0,0,0-1.92.09L149,292.25a5.4,5.4,0,0,0-2,2.17l-8,15.56c-.8,1.55-.79,3.15,0,3.78l8,6.32,4.58,2.66-8-6.32C142.88,315.79,142.88,314.19,143.67,312.64Z" style="fill: rgb(63, 0, 113); transform-origin: 158.952px 300.362px;" id="elc1ed5iaafjc" class="animable"></path><g id="elz12y5vcbiq"><path d="M143.67,312.64l8-15.56a5.32,5.32,0,0,1,1.95-2.17L177.72,281a1.81,1.81,0,0,1,1.78-.19h0l-4.42-2.57h0a1.69,1.69,0,0,0-1.92.09L149,292.25a5.4,5.4,0,0,0-2,2.17l-8,15.56c-.8,1.55-.79,3.15,0,3.78l8,6.32,4.58,2.66-8-6.32C142.88,315.79,142.88,314.19,143.67,312.64Z" style="opacity: 0.2; transform-origin: 158.952px 300.362px;" class="animable"></path></g><path d="M180.28,282.44a1.75,1.75,0,0,0-.78-1.65,1.81,1.81,0,0,0-1.78.19L153.6,294.91a5.32,5.32,0,0,0-1.95,2.17l-8,15.56c-.79,1.55-.79,3.15,0,3.78l8,6.32a1.71,1.71,0,0,0,1.95-.09l24.13-13.93a5.57,5.57,0,0,0,2.54-4.4Z" style="fill: rgb(63, 0, 113); transform-origin: 161.674px 301.821px;" id="el5jdvygfxw4a" class="animable"></path><path d="M198.86,293.5l-.06-21.88a5.64,5.64,0,0,1,2.55-4.41l24.12-13.92a1.93,1.93,0,0,1,1.63-.26h0l-4.41-2.59v0a1.81,1.81,0,0,0-1.79.17l-24.13,13.93a5.6,5.6,0,0,0-2.54,4.41l.06,21.88a1.78,1.78,0,0,0,.72,1.61h.05l4.55,2.65A1.79,1.79,0,0,1,198.86,293.5Z" style="fill: rgb(63, 0, 113); transform-origin: 210.665px 272.684px;" id="elylbkcsnypmb" class="animable"></path><g id="elpwcpqapsnw"><path d="M198.86,293.5l-.06-21.88a5.64,5.64,0,0,1,2.55-4.41l24.12-13.92a1.93,1.93,0,0,1,1.63-.26h0l-4.41-2.59v0a1.81,1.81,0,0,0-1.79.17l-24.13,13.93a5.6,5.6,0,0,0-2.54,4.41l.06,21.88a1.78,1.78,0,0,0,.72,1.61h.05l4.55,2.65A1.79,1.79,0,0,1,198.86,293.5Z" style="opacity: 0.2; transform-origin: 210.665px 272.684px;" class="animable"></path></g><path d="M199.64,295.15Z" style="fill: rgb(230, 230, 230); transform-origin: 199.64px 295.15px;" id="elj0q9ui3eazm" class="animable"></path><path d="M235.47,259.52l-8-6.32a1,1,0,0,0-.33-.17,1.93,1.93,0,0,0-1.63.26l-24.12,13.92a5.64,5.64,0,0,0-2.55,4.41l.06,21.88a1.79,1.79,0,0,0,.75,1.63h0a1.81,1.81,0,0,0,1.79-.2L225.55,281a5.38,5.38,0,0,0,2-2.18l8-15.56C236.27,261.74,236.27,260.14,235.47,259.52Z" style="fill: rgb(63, 0, 113); transform-origin: 217.46px 274.116px;" id="elran55kupfai" class="animable"></path><path d="M145.61,366.3l0-15.71a11,11,0,0,1,5-8.66l13.68-7.9a3.58,3.58,0,0,1,3.5-.38l-3.75-2h0c-.93-.68-2.28-.67-3.79.2l-13.67,7.9a11,11,0,0,0-5,8.66l0,15.72a3.61,3.61,0,0,0,1.31,3.1h0a1.88,1.88,0,0,0,.44.24l3.55,1.94h0A3.64,3.64,0,0,1,145.61,366.3Z" style="fill: rgb(63, 0, 113); transform-origin: 154.678px 350.288px;" id="elvrhbscs3wi" class="animable"></path><g id="elszokd6el8m"><path d="M145.61,366.3l0-15.71a11,11,0,0,1,5-8.66l13.68-7.9a3.58,3.58,0,0,1,3.5-.38l-3.75-2h0c-.93-.68-2.28-.67-3.79.2l-13.67,7.9a11,11,0,0,0-5,8.66l0,15.72a3.61,3.61,0,0,0,1.31,3.1h0a1.88,1.88,0,0,0,.44.24l3.55,1.94h0A3.64,3.64,0,0,1,145.61,366.3Z" style="opacity: 0.2; transform-origin: 154.678px 350.288px;" class="animable"></path></g><path d="M167.85,333.7h0Z" style="fill: rgb(63, 0, 113); transform-origin: 167.85px 333.7px;" id="elf5ufqbglwnb" class="animable"></path><path d="M169.28,336.9a3.55,3.55,0,0,0-1.44-3.2h0l-.07,0a3.58,3.58,0,0,0-3.5.38l-13.68,7.9a11,11,0,0,0-5,8.66l0,15.71a3.64,3.64,0,0,0,1.28,3.09c.92.66,2.26.64,3.75-.22l13.68-7.9a11,11,0,0,0,5-8.65Z" style="fill: rgb(63, 0, 113); transform-origin: 157.438px 351.656px;" id="elelriocngja9" class="animable"></path><path d="M183.89,344.19l0-15.71a11,11,0,0,1,5-8.66l38.86-22.44a3.59,3.59,0,0,1,3.53-.37h0l-4-2.18-.07,0-.09-.05h0a3.63,3.63,0,0,0-3.4.42l-38.86,22.44a11,11,0,0,0-5,8.66l0,15.72c0,1.74.69,2.91,1.76,3.35h0l3.73,2.06h0A3.54,3.54,0,0,1,183.89,344.19Z" style="fill: rgb(63, 0, 113); transform-origin: 205.57px 320.983px;" id="ellsd4ugrfl7b" class="animable"></path><g id="elpd1sos3rqor"><path d="M183.89,344.19l0-15.71a11,11,0,0,1,5-8.66l38.86-22.44a3.59,3.59,0,0,1,3.53-.37h0l-4-2.18-.07,0-.09-.05h0a3.63,3.63,0,0,0-3.4.42l-38.86,22.44a11,11,0,0,0-5,8.66l0,15.72c0,1.74.69,2.91,1.76,3.35h0l3.73,2.06h0A3.54,3.54,0,0,1,183.89,344.19Z" style="opacity: 0.2; transform-origin: 205.57px 320.983px;" class="animable"></path></g><path d="M232.74,300.25a3.52,3.52,0,0,0-1.5-3.24,3.59,3.59,0,0,0-3.53.37l-38.86,22.44a11,11,0,0,0-5,8.66l0,15.71a3.07,3.07,0,0,0,5,2.87l38.85-22.43a11,11,0,0,0,5-8.66Z" style="fill: rgb(63, 0, 113); transform-origin: 208.281px 322.244px;" id="elc0cmh4w84d9" class="animable"></path><path d="M227.5,169.33l-3.93-3.44,0,0h0c-2.05-1.65-5.12-1.67-8.56.31L191.4,179.78c-6.12,3.54-11.07,12.11-11.05,19.15a8.63,8.63,0,0,0,2.17,6.28h0l.27.23.18.16,3.34,2.93-.2-1.77a9.68,9.68,0,0,0,5.38-1.5L215,191.66c6.13-3.53,11.08-12.1,11.06-19.15a11.75,11.75,0,0,0-.32-2.76Z" style="fill: rgb(63, 0, 113); transform-origin: 203.917px 186.606px;" id="el0zwv2or3qmfh" class="animable"></path><g id="el0r9qst7w5jw"><path d="M227.5,169.33l-3.93-3.44,0,0h0c-2.05-1.65-5.12-1.67-8.56.31L191.4,179.78c-6.12,3.54-11.07,12.11-11.05,19.15a8.63,8.63,0,0,0,2.17,6.28h0l.27.23.18.16,3.34,2.93-.2-1.77a9.68,9.68,0,0,0,5.38-1.5L215,191.66c6.13-3.53,11.08-12.1,11.06-19.15a11.75,11.75,0,0,0-.32-2.76Z" style="opacity: 0.2; transform-origin: 203.917px 186.606px;" class="animable"></path></g><path d="M218.75,169.49c6.13-3.54,11.12-.7,11.14,6.34S225,191.44,218.83,195l-23.57,13.61c-6.12,3.53-11.11.7-11.13-6.35s4.93-15.61,11.06-19.14Z" style="fill: rgb(63, 0, 113); transform-origin: 207.01px 189.048px;" id="elkfg18p1td8" class="animable"></path><path d="M132,214.25c.57-.33,1-.06,1.05.6l.4,163.3a2.26,2.26,0,0,1-1,1.8c-.58.34-1,.06-1-.6l-.41-163.29A2.32,2.32,0,0,1,132,214.25Z" style="fill: rgb(63, 0, 113); transform-origin: 132.245px 297.102px;" id="elrl36orw60jf" class="animable"></path><g id="el88vlublysi3"><g style="opacity: 0.2; transform-origin: 132.245px 297.102px;" class="animable"><path d="M132,214.25c.57-.33,1-.06,1.05.6l.4,163.3a2.26,2.26,0,0,1-1,1.8c-.58.34-1,.06-1-.6l-.41-163.29A2.32,2.32,0,0,1,132,214.25Z" style="fill: rgb(255, 255, 255); transform-origin: 132.245px 297.102px;" id="elsw0g20sqwf" class="animable"></path></g></g><path d="M132.16,227.9c1.28-.74,2.32-.15,2.32,1.33l0,10.33a5,5,0,0,1-2.31,4c-1.27.74-2.32.15-2.32-1.32l0-10.34A5.1,5.1,0,0,1,132.16,227.9Z" style="fill: rgb(63, 0, 113); transform-origin: 132.165px 235.73px;" id="elq0xs7llm9b" class="animable"></path></g><g id="freepik--Colors--inject-45" class="animable" style="transform-origin: 267.375px 170.911px;"><path d="M287.66,110.94v-3.07a1.46,1.46,0,0,0-.52-1.25h0l-.06,0-.07,0-3.7-2.13h0a1.41,1.41,0,0,0-1.49.12L249,123.42a4.49,4.49,0,0,0-2,3.53v3.28h0l.13,103.68a1.47,1.47,0,0,0,.53,1.26h0l3.81,2.19h0a1.46,1.46,0,0,0,1.49-.12l32.85-18.89a4.47,4.47,0,0,0,2-3.53Zm-38.24,20.58,1.3.68h0Z" style="fill: rgb(63, 0, 113); transform-origin: 267.405px 170.921px;" id="el8x10wxzecz9" class="animable"></path><path d="M246.94,130.23V127a4.49,4.49,0,0,1,2-3.53l32.85-18.89a1.41,1.41,0,0,1,1.49-.12h0l3.83,2.2s-1.31.82-1.31.85l-.13,0v4.64l-35,20.13Z" style="fill: rgb(63, 0, 113); transform-origin: 267.025px 118.291px;" id="el7arku1jfii7" class="animable"></path><g id="elepl5e32h91h"><path d="M246.94,130.23V127a4.49,4.49,0,0,1,2-3.53l32.85-18.89a1.41,1.41,0,0,1,1.49-.12h0l3.83,2.2s-1.31.82-1.31.85l-.13,0v4.64l-35,20.13Z" style="fill: rgb(255, 255, 255); opacity: 0.7; transform-origin: 267.025px 118.291px;" class="animable"></path></g><path d="M252.75,125.59a4.47,4.47,0,0,0-2,3.53v3.08l36.94-21.26v-3.07c0-1.3-.92-1.82-2-1.17Z" style="fill: rgb(63, 0, 113); transform-origin: 269.22px 119.31px;" id="eld0286nk1m7" class="animable"></path><g id="elyib1nzna1r"><g style="opacity: 0.5; transform-origin: 269.22px 119.31px;" class="animable"><path d="M252.75,125.59a4.47,4.47,0,0,0-2,3.53v3.08l36.94-21.26v-3.07c0-1.3-.92-1.82-2-1.17Z" style="fill: rgb(255, 255, 255); transform-origin: 269.22px 119.31px;" id="el7pugns5zsz" class="animable"></path></g></g><path d="M250.84,236.08l-.12-103.88-3.78-2,.13,103.68a1.47,1.47,0,0,0,.53,1.26h0l3.81,2.19h0A1.44,1.44,0,0,1,250.84,236.08Z" style="fill: rgb(63, 0, 113); transform-origin: 249.175px 183.765px;" id="el8atrebazfop" class="animable"></path><path d="M287.66,110.94,250.72,132.2l.12,103.88a1.44,1.44,0,0,0,.57,1.29,1.46,1.46,0,0,0,1.49-.12l32.85-18.89a4.47,4.47,0,0,0,2-3.53Z" style="fill: rgb(63, 0, 113); transform-origin: 269.235px 174.23px;" id="ellz2ng5ea8id" class="animable"></path><g id="els01rkhok4ot"><path d="M287.66,110.94,250.72,132.2l.12,103.88a1.44,1.44,0,0,0,.57,1.29,1.46,1.46,0,0,0,1.49-.12l32.85-18.89a4.47,4.47,0,0,0,2-3.53Z" style="fill: rgb(255, 255, 255); opacity: 0.3; transform-origin: 269.235px 174.23px;" class="animable"></path></g><polygon points="259.01 222.95 279.56 211.13 279.54 189.82 258.99 201.64 259.01 222.95" style="fill: rgb(63, 0, 113); transform-origin: 269.275px 206.385px;" id="elfmarywv6yzi" class="animable"></polygon><g id="el9zydqrblyf5"><polygon points="259.01 222.95 279.56 211.13 279.54 189.82 258.99 201.64 259.01 222.95" style="opacity: 0.5; transform-origin: 269.275px 206.385px;" class="animable"></polygon></g><polygon points="258.96 174.74 258.98 196.05 279.53 184.23 279.51 162.92 258.96 174.74" style="fill: rgb(63, 0, 113); transform-origin: 269.245px 179.485px;" id="elkjfmspev13" class="animable"></polygon><polygon points="279.47 135.29 258.92 147.12 258.95 169.15 279.5 157.33 279.47 135.29" style="fill: rgb(255, 255, 255); transform-origin: 269.21px 152.22px;" id="elpbvhsequhpr" class="animable"></polygon><path d="M258.67,133.65a1.81,1.81,0,0,1,1.39-.32c.1,0,.18.13.18.32a1,1,0,0,1-.45.77.34.34,0,0,1-.27.06,1,1,0,0,0-.85.15,2.69,2.69,0,0,0-1.21,2.19h0c0,.82.5,1.22,1.21.81a2.7,2.7,0,0,0,.91-.9.91.91,0,0,1,.27-.28c.24-.13.43,0,.43.24a.93.93,0,0,1-.15.47,4.23,4.23,0,0,1-1.48,1.46c-1.23.71-2.14.14-2.15-1.23v0A4.64,4.64,0,0,1,258.67,133.65Z" style="fill: rgb(255, 255, 255); transform-origin: 258.39px 136.114px;" id="eljffe3vj1zx" class="animable"></path><path d="M263,131.16c1.29-.75,2.22-.18,2.22,1.18a4.73,4.73,0,0,1-2.21,3.78c-1.29.74-2.22.17-2.22-1.19A4.72,4.72,0,0,1,263,131.16Zm1.26,1.76h0c0-.82-.52-1.2-1.26-.78a2.74,2.74,0,0,0-1.25,2.21v0c0,.82.53,1.2,1.27.78a2.72,2.72,0,0,0,1.24-2.22" style="fill: rgb(255, 255, 255); transform-origin: 263.005px 133.637px;" id="eltabnirgu54" class="animable"></path><path d="M266.48,129.18c.26-.15.46,0,.46.26v3.35l1.7-1c.23-.13.42,0,.42.24a.9.9,0,0,1-.42.72L266.5,134c-.26.15-.46,0-.46-.26V130A1,1,0,0,1,266.48,129.18Z" style="fill: rgb(255, 255, 255); transform-origin: 267.55px 131.59px;" id="eljknxlbdxk7h" class="animable"></path><path d="M271.51,126.24c1.29-.74,2.21-.18,2.22,1.18a4.73,4.73,0,0,1-2.22,3.78c-1.28.74-2.21.17-2.21-1.19A4.7,4.7,0,0,1,271.51,126.24Zm1.26,1.77v0c0-.82-.53-1.2-1.27-.77a2.71,2.71,0,0,0-1.25,2.21h0c0,.82.53,1.21,1.27.78a2.73,2.73,0,0,0,1.25-2.21" style="fill: rgb(255, 255, 255); transform-origin: 271.515px 128.719px;" id="el38swsl3fbz2" class="animable"></path><path d="M278,124.15a2.8,2.8,0,0,1-.83,1.95l.65.51a.43.43,0,0,1,.14.33,1,1,0,0,1-.43.74c-.21.11-.35.08-.45,0l-.9-.78-.74.42v1a1,1,0,0,1-.46.79c-.26.15-.46,0-.46-.26V125.1a1,1,0,0,1,.46-.79l1.45-.84c.52-.3.94-.37,1.21-.22A1,1,0,0,1,278,124.15Zm-.92.6v0c0-.45-.28-.52-.73-.26l-.91.52v1.38l.93-.54a1.31,1.31,0,0,0,.71-1.08" style="fill: rgb(255, 255, 255); transform-origin: 276.264px 126.172px;" id="elo8dp7yswy5" class="animable"></path><path d="M280.19,121.24a2.12,2.12,0,0,1,1.32-.34c.1,0,.2.1.2.3a.9.9,0,0,1-.42.74.36.36,0,0,1-.24,0,1.43,1.43,0,0,0-.87.19,1,1,0,0,0-.54.73h0c0,.32.18.31.91.11s1.32-.16,1.32.67v0a2.87,2.87,0,0,1-1.52,2.37,2.18,2.18,0,0,1-1.57.32.27.27,0,0,1-.18-.29.93.93,0,0,1,.43-.74.35.35,0,0,1,.26,0,1.35,1.35,0,0,0,1.07-.18,1,1,0,0,0,.6-.8v0c0-.27-.14-.32-.84-.13s-1.38.29-1.38-.66A2.77,2.77,0,0,1,280.19,121.24Z" style="fill: rgb(255, 255, 255); transform-origin: 280.234px 123.629px;" id="el8sk510uisbm" class="animable"></path></g><g id="freepik--Character--inject-45" class="animable" style="transform-origin: 336.951px 316.165px;"><path d="M322,203h0a7.59,7.59,0,0,0-4.68,3.69l-5.14,9.37L295.4,235.26a45.44,45.44,0,0,0-10.16,20h0a9.37,9.37,0,0,0,2.42,8.57h0a9.36,9.36,0,0,0,13.24.15l5.6-5.48-1.22-8.62,14.54-28.32,8-4.69a6.59,6.59,0,0,0,3.17-4.61l.61-3.7Z" style="fill: rgb(199, 112, 112); transform-origin: 308.307px 234.824px;" id="el8zpa3lmo1ns" class="animable"></path><path d="M331.62,208.57,322,203l-.39.13a12.5,12.5,0,0,0,1.58,10.6,4.78,4.78,0,0,0,1.38,1.45,4.1,4.1,0,0,0,3.51.23,9.15,9.15,0,0,0,2.28-1.23,6.51,6.51,0,0,0,.66-1.95Z" style="fill: rgb(173, 82, 82); transform-origin: 326.345px 209.35px;" id="el9iu8e2kv0f" class="animable"></path><path d="M368.11,260.09l3.09,6.53-7.4,8.14.54,19.46,23.87-20.73a6.45,6.45,0,0,0,1.58-7.68l-7.28-15.14Z" style="fill: rgb(199, 112, 112); transform-origin: 377.117px 272.445px;" id="elhbhnz9wf1p7" class="animable"></path><path d="M375.47,272.44s-3.35-2.77-4.27-5.82l-1.84,2A9.47,9.47,0,0,0,375.47,272.44Z" style="fill: rgb(173, 82, 82); transform-origin: 372.415px 269.53px;" id="elru6epk7a3kn" class="animable"></path><path d="M367.51,261.66C377,260.83,383.45,251,383.45,251c-8.48-17.37-15.88-36.69-30.69-32.07Z" style="fill: rgb(55, 71, 79); transform-origin: 368.105px 239.948px;" id="elcc1nnnj1je9" class="animable"></path><g id="el2shr70qywec"><path d="M359.08,237.23l8.43,24.43a17.72,17.72,0,0,0,8.16-3A49.59,49.59,0,0,0,359.08,237.23Z" style="opacity: 0.1; transform-origin: 367.375px 249.445px;" class="animable"></path></g><path d="M331,462.61c-.84,1.77-3.52,3.41-6.46,3.89s-5.91-.15-8.86-.56a59.13,59.13,0,0,0-13.23-.34,68.86,68.86,0,0,1-8.23.59,13,13,0,0,1-7.74-2.45,7.86,7.86,0,0,1-2.9-4.94,7.45,7.45,0,0,0,2.9,6.66,13,13,0,0,0,7.74,2.45,68.84,68.84,0,0,0,8.23-.58,58.54,58.54,0,0,1,13.23.33c2.95.41,6.14,1.26,9.07.78s5.62-2.13,6.46-3.9Z" style="fill: rgb(38, 50, 56); transform-origin: 307.377px 463.691px;" id="elf01k8ecf37v" class="animable"></path><path d="M298.85,457.38c2.47,0,1.56-3.66,3.91-6.1-.95.05-1.91.07-2.87.07C297.78,454.39,297.19,457.38,298.85,457.38Z" style="fill: rgb(255, 255, 255); transform-origin: 300.326px 454.33px;" id="elrr5a87rye8k" class="animable"></path><path d="M304,457.19c2.48,0,1.83-4.36,4.27-6.9a17.1,17.1,0,0,1-1.69.49c-.49.11-1,.19-1.47.26C302.92,454.12,302.29,457.19,304,457.19Z" style="fill: rgb(255, 255, 255); transform-origin: 305.645px 453.74px;" id="el9uickv9x65" class="animable"></path><path d="M328.41,448.84a3.34,3.34,0,0,0-1.28-2l-13.34-.33a11.43,11.43,0,0,1-5.54,3.79c-2.44,2.54-1.79,6.9-4.27,6.9-1.69,0-1.06-3.07,1.11-6.15-.77.12-1.55.19-2.33.24-2.35,2.44-1.44,6.1-3.91,6.1-1.66,0-1.07-3,1-6l-1.87,0c-.57,0-1.14-.05-1.71-.1-4.9,3.88-5.32,8.09-4.69,14.69a15.89,15.89,0,0,0,2.56.27,68.86,68.86,0,0,0,8.23-.59,59.13,59.13,0,0,1,13.23.34c2.95.41,5.93,1.05,8.86.56s5.62-2.12,6.46-3.89Z" style="fill: rgb(63, 0, 113); transform-origin: 311.137px 456.623px;" id="elsftyme68poq" class="animable"></path><g id="eldvba1opti0i"><path d="M328.41,448.84a3.34,3.34,0,0,0-1.28-2l-13.34-.33a11.43,11.43,0,0,1-5.54,3.79c-2.44,2.54-1.79,6.9-4.27,6.9-1.69,0-1.06-3.07,1.11-6.15-.77.12-1.55.19-2.33.24-2.35,2.44-1.44,6.1-3.91,6.1-1.66,0-1.07-3,1-6l-1.87,0c-.57,0-1.14-.05-1.71-.1-4.9,3.88-5.32,8.09-4.69,14.69a15.89,15.89,0,0,0,2.56.27,68.86,68.86,0,0,0,8.23-.59,59.13,59.13,0,0,1,13.23.34c2.95.41,5.93,1.05,8.86.56s5.62-2.12,6.46-3.89Z" style="opacity: 0.4; transform-origin: 311.137px 456.623px;" class="animable"></path></g><path d="M296.31,451.23c-2.24-.18-4.51-.52-6.67,0-2.7.66-5.29,2.53-6,5.23a6,6,0,0,0-.1,2.34,7.86,7.86,0,0,0,2.9,4.94,11.44,11.44,0,0,0,5.18,2.18C291,459.32,291.41,455.11,296.31,451.23Z" style="fill: rgb(255, 255, 255); transform-origin: 289.89px 458.437px;" id="el23aysz1fmz" class="animable"></path><path d="M313.41,442.7v6.42a2.64,2.64,0,0,0,2.64,2.64h6.72a4.32,4.32,0,0,0,4.33-4.19l.16-4.87Z" style="fill: rgb(173, 82, 82); transform-origin: 320.335px 447.23px;" id="el2nra9r6csgr" class="animable"></path><path d="M362.53,440a4.94,4.94,0,0,1-4,2.83,8.46,8.46,0,0,1-5.12-1.26c-2.32-1.47-3.22-3.78-4.8-5.86a35,35,0,0,0-5.57-5.45c-2.11-1.77-4.21-3.67-5.34-6.18a8.72,8.72,0,0,1-.63-2.26,8.09,8.09,0,0,0,.63,4.34c1.13,2.51,3.23,4.42,5.34,6.18a35.46,35.46,0,0,1,5.57,5.45c1.58,2.08,2.48,4.4,4.8,5.87a8.53,8.53,0,0,0,5.12,1.26,5,5,0,0,0,4-2.84,11.47,11.47,0,0,0,.24-3.58A4.72,4.72,0,0,1,362.53,440Z" style="fill: rgb(38, 50, 56); transform-origin: 349.909px 433.381px;" id="elde37jadpo3b" class="animable"></path><path d="M347.37,425.86A1.75,1.75,0,0,0,347,427a1.14,1.14,0,0,0,.73.83,1.59,1.59,0,0,0,1.5-.39,7.21,7.21,0,0,0,1-1.23,7.75,7.75,0,0,1,5.49-3l-1.67-1.52a8.38,8.38,0,0,0-3,.74A8.51,8.51,0,0,0,347.37,425.86Z" style="fill: rgb(255, 255, 255); transform-origin: 351.359px 424.786px;" id="elvr53p3l1iy" class="animable"></path><path d="M347.73,420.56A8.4,8.4,0,0,0,344,424a1.68,1.68,0,0,0-.33,1.1,1.16,1.16,0,0,0,.73.83,1.59,1.59,0,0,0,1.5-.39,7.77,7.77,0,0,0,1-1.24,8,8,0,0,1,3.43-2.5,7.72,7.72,0,0,1,3.37-.44l-1.65-1.51A8.4,8.4,0,0,0,347.73,420.56Z" style="fill: rgb(255, 255, 255); transform-origin: 348.684px 422.894px;" id="elgtd6u6s0iew" class="animable"></path><path d="M351.05,418.89a17.43,17.43,0,0,0-5.24-3.5c-2.38-.9-5.35-.77-7.19,1a6.25,6.25,0,0,0-1.6,5.4,8.72,8.72,0,0,0,.63,2.26,11.73,11.73,0,0,0,1.66,2.62C340,420.93,344.94,418.24,351.05,418.89Z" style="fill: rgb(255, 255, 255); transform-origin: 343.985px 420.757px;" id="elz14xq6222c" class="animable"></path><path d="M362.66,434.34a12,12,0,0,0-1.31-5.62l-3.24-3.4-2.31-2.11a7.75,7.75,0,0,0-5.49,3,7.21,7.21,0,0,1-1,1.23,1.59,1.59,0,0,1-1.5.39A1.14,1.14,0,0,1,347,427a1.75,1.75,0,0,1,.33-1.1,8.51,8.51,0,0,1,3.72-3.43,8.38,8.38,0,0,1,3-.74l-.38-.34a7.72,7.72,0,0,0-3.37.44,8,8,0,0,0-3.43,2.5,7.77,7.77,0,0,1-1,1.24,1.59,1.59,0,0,1-1.5.39,1.16,1.16,0,0,1-.73-.83A1.68,1.68,0,0,1,344,424a8.28,8.28,0,0,1,8.09-4.15l-.06,0-1-.9c-6.11-.65-11.1,2-11.74,7.78a26.37,26.37,0,0,0,3.68,3.56,35,35,0,0,1,5.57,5.45c1.58,2.08,2.48,4.39,4.8,5.86a8.46,8.46,0,0,0,5.12,1.26,4.94,4.94,0,0,0,4-2.83,4.72,4.72,0,0,0,.24-1.5A41.17,41.17,0,0,0,362.66,434.34Z" style="fill: rgb(63, 0, 113); transform-origin: 351.013px 430.869px;" id="elq1r16i4ow1e" class="animable"></path><g id="elungthmfkwck"><path d="M362.66,434.34a12,12,0,0,0-1.31-5.62l-3.24-3.4-2.31-2.11a7.75,7.75,0,0,0-5.49,3,7.21,7.21,0,0,1-1,1.23,1.59,1.59,0,0,1-1.5.39A1.14,1.14,0,0,1,347,427a1.75,1.75,0,0,1,.33-1.1,8.51,8.51,0,0,1,3.72-3.43,8.38,8.38,0,0,1,3-.74l-.38-.34a7.72,7.72,0,0,0-3.37.44,8,8,0,0,0-3.43,2.5,7.77,7.77,0,0,1-1,1.24,1.59,1.59,0,0,1-1.5.39,1.16,1.16,0,0,1-.73-.83A1.68,1.68,0,0,1,344,424a8.28,8.28,0,0,1,8.09-4.15l-.06,0-1-.9c-6.11-.65-11.1,2-11.74,7.78a26.37,26.37,0,0,0,3.68,3.56,35,35,0,0,1,5.57,5.45c1.58,2.08,2.48,4.39,4.8,5.86a8.46,8.46,0,0,0,5.12,1.26,4.94,4.94,0,0,0,4-2.83,4.72,4.72,0,0,0,.24-1.5A41.17,41.17,0,0,0,362.66,434.34Z" style="opacity: 0.4; transform-origin: 351.013px 430.869px;" class="animable"></path></g><path d="M351,424.18l.39,6.89c4.35,2.51,8.93,1.15,10.45-.44l.29-6.45Z" style="fill: rgb(173, 82, 82); transform-origin: 356.565px 428.319px;" id="elbogln20vl3e" class="animable"></path><path d="M364.34,299.63c2.1,6.31-.48,36.26-1.71,65,4.56,10.87,3.33,41.7.7,63.6,0,0-4.55,2.8-12.79,0l-10.33-60.44-1.44-34.16s-2.59,30.3-5.57,49.75c2.8,14.89,2.1,17.69-4.82,63.5a17.28,17.28,0,0,1-15.5,0c-3.91-64.35-2.48-123-1.73-144.09Z" style="fill: rgb(63, 0, 113); transform-origin: 337.973px 374.173px;" id="elv56mc1s8bj" class="animable"></path><g id="elecs1z0fv9cb"><path d="M364.34,299.63c2.1,6.31-.48,36.26-1.71,65,4.56,10.87,3.33,41.7.7,63.6,0,0-4.55,2.8-12.79,0l-10.33-60.44-1.44-34.16s-2.59,30.3-5.57,49.75c2.8,14.89,2.1,17.69-4.82,63.5a17.28,17.28,0,0,1-15.5,0c-3.91-64.35-2.48-123-1.73-144.09Z" style="opacity: 0.2; transform-origin: 337.973px 374.173px;" class="animable"></path></g><g id="elh50gnnov03f"><path d="M339.65,354.42l-1.17-27.86c5.2-1.16,8.76-2.61,14.11-9.65C349.1,327,343,329.46,343,329.46Z" style="opacity: 0.3; transform-origin: 345.535px 335.665px;" class="animable"></path></g><path d="M310.05,249.93v54.56c32.12,13.46,52.94,1.3,55.77-5-1.48-22.22,3.77-48.19,3.36-59.23s-1.75-23.48-18.87-21L332.11,221l-9.23,2.25Z" style="fill: rgb(69, 90, 100); transform-origin: 339.626px 264.759px;" id="elzfsln5h2gz" class="animable"></path><g id="el5k68bpxzagx"><path d="M310.05,257l13.16-14.49a62.93,62.93,0,0,1-13.16,27.06Z" style="opacity: 0.1; transform-origin: 316.63px 256.04px;" class="animable"></path></g><path d="M291.48,247l17.25-17a24.27,24.27,0,0,1,14.19-6.81l.31,0c7.3,16-2.36,23.81-2.36,23.81l-16,14.74A29,29,0,0,1,291.48,247Z" style="fill: rgb(55, 71, 79); transform-origin: 308.719px 242.465px;" id="el67mnofu762j" class="animable"></path><path d="M323.38,183.56c-1.21-1.09-.37-2.85-.37-2.85a3.26,3.26,0,0,1-2.71-.38,2.48,2.48,0,0,1-1.19-2.31,2.1,2.1,0,0,1,1.75-1.85,3.39,3.39,0,0,1-2.07-1.42,3.31,3.31,0,0,1-.65-2.41,4.39,4.39,0,0,1,3-3.38,10.52,10.52,0,0,1,4.74-.26,3.83,3.83,0,0,1,2-4.5,4.69,4.69,0,0,1,4.36.72,13.85,13.85,0,0,1,3.08,3.39,13.56,13.56,0,0,1,19.29,7.53,9.3,9.3,0,0,1,6,6.29,14.72,14.72,0,0,1-.52,8.82,40.24,40.24,0,0,1-4.12,8l-2.28,3.61c-.95,1.51-3.39,5.26-4.35,6.76a14.14,14.14,0,0,1-13.46-.82,23,23,0,0,1-8.64-10.73A74.11,74.11,0,0,1,323.38,183.56Z" style="fill: rgb(38, 50, 56); transform-origin: 339.584px 187.298px;" id="el168r5fwo52h" class="animable"></path><path d="M343.61,210.82a15,15,0,0,1-7.77-2.19,23,23,0,0,1-8.72-10.83,72.79,72.79,0,0,1-3.93-14.13,2.58,2.58,0,0,1-.52-2.65,3.59,3.59,0,0,1-2.48-.51A2.7,2.7,0,0,1,318.9,178a2.36,2.36,0,0,1,1.25-1.82,4,4,0,0,1-1.53-1.29,3.57,3.57,0,0,1-.7-2.57,4.57,4.57,0,0,1,3.19-3.55,10.37,10.37,0,0,1,4.51-.31,4.07,4.07,0,0,1,2.22-4.44,4.86,4.86,0,0,1,4.56.73,13.44,13.44,0,0,1,3,3.31,14.06,14.06,0,0,1,11.37-.66,14.35,14.35,0,0,1,8,8.28,9.46,9.46,0,0,1,6.07,6.4,14.94,14.94,0,0,1-.52,9,40.54,40.54,0,0,1-4.14,8l-2.28,3.6c-.48.77-1.35,2.11-2.21,3.44s-1.67,2.58-2.14,3.33l0,.05-.05,0A13,13,0,0,1,343.61,210.82Zm-20.19-30.48-.22.46a2.33,2.33,0,0,0,.33,2.6l.05,0v.07a73.57,73.57,0,0,0,3.92,14.12c1.42,3.32,4.06,7.87,8.55,10.63a13.87,13.87,0,0,0,13.2.84l2.12-3.28c.86-1.33,1.72-2.67,2.2-3.43.76-1.2,1.53-2.4,2.28-3.61a40.21,40.21,0,0,0,4.1-7.91,14.58,14.58,0,0,0,.52-8.69,9.17,9.17,0,0,0-5.89-6.15l-.1,0,0-.1a13.92,13.92,0,0,0-7.81-8.12,13.69,13.69,0,0,0-11.19.71l-.16.08-.1-.14a13.49,13.49,0,0,0-3-3.35,4.48,4.48,0,0,0-4.15-.69,3.62,3.62,0,0,0-1.88,4.23l.12.32-.35,0a10.47,10.47,0,0,0-4.64.25,4.15,4.15,0,0,0-2.91,3.2,3.18,3.18,0,0,0,.62,2.27,3.22,3.22,0,0,0,1.93,1.33l1.56.23-1.56.19a1.9,1.9,0,0,0-1.57,1.66,2.25,2.25,0,0,0,1.09,2.11,3.05,3.05,0,0,0,2.53.36Z" style="fill: rgb(39, 37, 37); transform-origin: 339.598px 187.284px;" id="elc7ssr9ym20v" class="animable"></path><path d="M321.3,192.91l-2.88,5,2.85,1.06A58.13,58.13,0,0,1,321.3,192.91Z" style="fill: rgb(173, 82, 82); transform-origin: 319.86px 195.94px;" id="el306fl4wyj5s" class="animable"></path><path d="M323.38,183.56a40.75,40.75,0,0,0-2.08,9.35,58.13,58.13,0,0,0,0,6.05,57,57,0,0,0,1,8.44,9.09,9.09,0,0,0,1.66,4.24,6.64,6.64,0,0,0,4.6,2.11,20,20,0,0,0,5.16-.49v8.19c6.22,1.47,11.37,2.12,16.25-1.64l-.52-10.54a15.19,15.19,0,0,1-8.75-1.38c-4.3-2.32-5.5-6-4.9-8.09a3.23,3.23,0,0,0,3.36,1.18,4.53,4.53,0,0,0,2.79-2.21,9.23,9.23,0,0,0,1-3.49,6.34,6.34,0,0,0-.64-4.32,4.5,4.5,0,0,0-4.86-1.64,7,7,0,0,0-4.1,3.42,11.68,11.68,0,0,0-.72,1.57,1,1,0,0,1-1.88-.24,12.9,12.9,0,0,1,1.23-6.86,5,5,0,0,1-2.3.54,2.93,2.93,0,0,1-2.2-1,2,2,0,0,1-.08-2.32C325.34,185.43,323.38,183.56,323.38,183.56Z" style="fill: rgb(199, 112, 112); transform-origin: 335.596px 203.085px;" id="ellbwqfuzqmig" class="animable"></path></g><defs>     <filter id="active" height="200%">         <feMorphology in="SourceAlpha" result="DILATED" operator="dilate" radius="2"></feMorphology>                <feFlood flood-color="#32DFEC" flood-opacity="1" result="PINK"></feFlood>        <feComposite in="PINK" in2="DILATED" operator="in" result="OUTLINE"></feComposite>        <feMerge>            <feMergeNode in="OUTLINE"></feMergeNode>            <feMergeNode in="SourceGraphic"></feMergeNode>        </feMerge>    </filter>    <filter id="hover" height="200%">        <feMorphology in="SourceAlpha" result="DILATED" operator="dilate" radius="2"></feMorphology>                <feFlood flood-color="#ff0000" flood-opacity="0.5" result="PINK"></feFlood>        <feComposite in="PINK" in2="DILATED" operator="in" result="OUTLINE"></feComposite>        <feMerge>            <feMergeNode in="OUTLINE"></feMergeNode>            <feMergeNode in="SourceGraphic"></feMergeNode>        </feMerge>            <feColorMatrix type="matrix" values="0   0   0   0   0                0   1   0   0   0                0   0   0   0   0                0   0   0   1   0 "></feColorMatrix>    </filter></defs></svg>